<?xml version="1.0" standalone="no"?>
<!DOCTYPE svg PUBLIC "-//W3C//DTD SVG 1.1//EN" "http://www.w3.org/Graphics/SVG/1.1/DTD/svg11.dtd" >
<!--
2013-9-30: Created.
-->
<svg>
<metadata>
Created by iconfont
</metadata>
<defs>

<font id="iconfont" horiz-adv-x="1024" >
  <font-face
    font-family="iconfont"
    font-weight="500"
    font-stretch="normal"
    units-per-em="1024"
    ascent="896"
    descent="-128"
  />
    <missing-glyph />
    
    <glyph glyph-name="icon5" unicode="&#58926;" d="M621.80536 386.809999c72.541153 41.201377 121.483842 119.160937 121.483842 208.505801 0 132.347261-107.33868 239.687988-239.687988 239.687988-132.324748 0-239.639892-107.340727-239.639892-239.687988 0-91.487667 51.290153-171.018002 126.677121-211.375152-188.30676-51.953256-326.757019-221.944881-326.757019-423.073668 0-8.767688 0.432859-17.60496 0.934279-26.372647l44.730761 2.095731c-0.432859 8.15268-0.865717 16.216333-0.865717 24.27794 0 208.55492 163.982772 380.051829 371.531781 395.948891 7.699356-0.75213 15.510252-1.140986 23.38971-1.140986 9.954723 0 19.770276 0.618077 29.381168 1.802042 212.379015-10.934027 381.803729-184.638207 381.803729-396.608923 0-7.653307-0.410346-15.35164-0.910743-24.323988l44.821835-0.844228c0.454348 8.381901 0.865717 16.787338 0.865717 25.168216C959.56292 165.888424 815.692209 338.550879 621.80536 386.809999zM503.601214 403.59529c-105.721857 0-191.721533 85.99763-191.721533 191.720509 0 105.746416 85.999676 191.768605 191.721533 191.768605 105.791441 0 191.768605-86.022189 191.768605-191.768605C695.369819 489.59292 609.392656 403.59529 503.601214 403.59529z"  horiz-adv-x="1024" />

    
    <glyph glyph-name="shouhuoren" unicode="&#58928;" d="M902.34841042 548.91683536c-21.33848033 50.45256192-51.88042994 95.75535594-90.77708117 134.65325114-38.8978952 38.89665244-84.20193197 69.43860205-134.65325113 90.77708117-52.2470274 22.09777194-107.73254295 33.30199703-164.91683536 33.30199703-57.17932138 0-112.66359418-11.20546665-164.91186434-33.30199703-50.45131916-21.33848033-95.75535594-51.88042994-134.65325113-90.77708117-38.89913795-38.8978952-69.44108756-84.20068921-90.78080944-134.65200838-22.09901469-52.24827017-33.30448133-107.73502847-33.30448134-164.91683536 0-57.18304965 11.20546665-112.66980796 33.30448134-164.91683537 21.33848033-50.45131916 51.8816727-95.75535594 90.78080944-134.65200837 38.8978952-38.8978952 84.20193197-69.43860205 134.65325113-90.77708117 52.2470274-22.09777194 107.7313002-33.30323858 164.91186434-33.30323859 57.18304965 0 112.66980796 11.20546665 164.91683536 33.30323859 50.45256192 21.33723758 95.75659869 51.87918719 134.65325113 90.77708117 38.89665244 38.8978952 69.43860205 84.20193197 90.77708117 134.65325112 22.09652918 52.2470274 33.30199703 107.73254295 33.30199704 164.91683537C935.6491647 441.1818069 924.44494082 496.66856519 902.34841042 548.91683536zM512.00124276 16.83672753999997c-85.45706409 0-164.18861025 29.34771014-226.64569743 78.49170505 0.45234403 2.00696839 0.69964291 4.09346836 0.69964293 6.23837669 0 96.8079272 62.65964923 183.13488338 153.74367797 213.87690833 21.91633795-10.36539828 46.39264556-16.1750421 72.20237653-16.1750421 25.81221649 0 50.28852531 5.81088658 72.20734755 16.17752762 91.08030169-30.74575323 153.73870816-117.07395216 153.73870816-213.87939385 0-2.14490832 0.24605491-4.228924 0.69964292-6.23713394C676.18861025 46.18443890000003 597.45830685 16.83672753999997 512.00124276 16.83672753999997zM571.57152737 372.78210578999995c-3.22730333-1.11346271-6.23216291-2.80354148-8.86048296-4.98448854-15.25792646-7.69731243-32.48553984-12.04056398-50.70980165-12.04056398-18.21307821 0-35.43074953 4.33828174-50.68246221 12.02689487-2.63826212 2.19213066-5.65554805 3.88842201-8.89776446 5.00312867-32.03071029 19.96280566-53.39404334 55.50291293-53.39404334 95.94300493 0 62.29305056 50.67997669 112.97302725 112.97427001 112.97302724s112.97302725-50.67997669 112.97302725-112.97302724C624.97302725 428.28501872 603.60596594 392.7436687 571.57152737 372.78210578999995zM791.03066597 145.63559802999998c-7.23005531 46.41252966-25.91038942 89.98175084-55.09654846 127.85192869-26.32296767 34.15324899-60.44266345 61.93515239-98.87330152 81.01190892 27.56194395 30.14925548 44.39934749 70.25878752 44.39934748 114.22940213 0 93.44019722-76.01996505 169.45892071-169.46016347 169.4589207-93.44019722 0-169.46016347-76.01872228-169.46016347-169.4589207 0-43.97185738 16.83740353-84.08138942 44.40059024-114.2306449-38.43436635-19.07800049-72.55530489-46.85865991-98.87827255-81.01066615-29.18491629-37.86893509-47.86400885-81.43815748-55.09157744-127.85317145-54.91511447 64.18941846-88.13260649 147.46553549-88.13260649 238.36440197 0 202.45521172 164.70806073 367.16327246 367.16327247 367.16327247 202.45396897 0 367.16202971-164.70806073 367.1620297-367.16327247C879.16202971 293.10113350999995 845.94453648 209.82501649000005 791.03066597 145.63559802999998z"  horiz-adv-x="1024" />

    
    <glyph glyph-name="scan" unicode="&#58881;" d="M926.82875 365.20458333l-829.01625 0c-17.8321875 0-32.300625 14.48625-32.300625 32.3240625 0 17.836875 14.4703125 32.311875 32.300625 32.311875l829.01625 0c17.825625 0 32.300625-14.475 32.300625-32.311875 0-17.8378125-14.475-32.3240625-32.300625-32.3240625M883.7665625 554.4783333299999c-17.825625 0-32.300625 14.4628125-32.300625 32.3240625l0 140.0353125-139.9659375 0c-17.8246875 0-32.2996875 14.4796875-32.2996875 32.3184375 0 17.8378125 14.4759375 32.3184375 32.2996875 32.3184375l172.265625 0c17.825625 0 32.300625-14.4796875 32.300625-32.3184375l0-172.3528125c0-17.8621875-14.475-32.3240625-32.300625-32.3240625M313.1421875 726.83864583l-139.9659375 0 0-140.0353125c0-17.86125-14.4703125-32.3240625-32.300625-32.3240625-17.8246875 0-32.2996875 14.4628125-32.2996875 32.3240625l0 172.351875c0 17.8378125 14.475 32.3184375 32.2996875 32.3184375l172.265625 0c17.825625 0 32.300625-14.4796875 32.300625-32.3184375 0-17.836875-14.475-32.3165625-32.300625-32.3165625M140.875625 235.94395833c17.8321875 0 32.300625-14.4871875 32.300625-32.3240625l0-140.0353125 139.965 0c17.825625 0 32.300625-14.4759375 32.300625-32.3240625 0-17.836875-14.475-32.311875-32.300625-32.311875l-172.2646875 0c-17.8246875 0-32.2996875 14.4759375-32.2996875 32.311875l0 172.3603125c0 17.836875 14.475 32.3240625 32.2996875 32.3240625M711.5 63.58552082999995l139.965 0 0 140.0353125c0 17.836875 14.4759375 32.3240625 32.300625 32.3240625s32.300625-14.4871875 32.300625-32.3240625l0-172.3603125c0-17.836875-14.4759375-32.311875-32.300625-32.311875l-172.2646875 0c-17.8246875 0-32.2996875 14.4759375-32.2996875 32.311875-0.0009375 17.85 14.475 32.3240625 32.2996875 32.3240625z"  horiz-adv-x="1024" />

    
    <glyph glyph-name="looktimes" unicode="&#58986;" d="M512 444c-34.00000031 0-60-25.99999969-60-60 0-34.00000031 25.99999969-60 60-60s60 25.99999969 60 60C572 418.00000031 546.00000031 444 512 444zM512 583.99999969c-109.99999969 0-199.99999969-90-199.99999969-199.99999969 0-109.99999969 90-199.99999969 199.99999969-199.99999969 109.99999969 0 199.99999969 90 199.99999969 199.99999969C711.99999969 493.99999969 621.99999969 583.99999969 512 583.99999969zM512 223.99999968999998c-88.00000031 0-160.00000031 72-160.00000031 160.00000031 0 88.00000031 72 160.00000031 160.00000031 160.00000031s160.00000031-72 160.00000031-160.00000031C672.00000031 295.99999969 600.00000031 223.99999968999998 512 223.99999968999998zM512 664.00000031C267.99999969 664.00000031 72.00000031 463.99999969 72.00000031 384s196.00000031-280.00000031 439.99999969-280.00000031c244.00000031 0 439.99999969 199.99999969 439.99999969 280.00000031S756.00000031 664.00000031 512 664.00000031zM512 144C291.99999969 144 111.99999969 316.00000031 111.99999969 384s180 240 400.00000031 240c220.00000031 0 400.00000031-172.00000031 400.00000031-240S732.00000031 144 512 144z"  horiz-adv-x="1024" />

    
    <glyph glyph-name="you" unicode="&#58934;" d="M511.609097-65.61925399999996M662.268422 384.989537L280.997835 3.7005309999999554c-14.785751-14.808264-14.785751-38.796608 0-53.562916 14.788821-14.807241 38.776142-14.807241 53.584406 0l408.226518 408.230612c14.789844 14.790868 14.789844 38.777165 0 53.585429-1.01512 1.020236-2.099824 1.976004-3.206018 2.843768L333.797365 820.649871c-14.808264 14.788821-38.795585 14.788821-53.607942 0-14.762215-14.808264-14.762215-38.796608 0-53.585429L662.268422 384.989537 662.268422 384.989537 662.268422 384.989537zM662.268422 384.989537"  horiz-adv-x="1024" />

    
    <glyph glyph-name="shouji" unicode="&#59026;" d="M798.723234 721.217255c0 60.576657-49.106418 109.683075-109.683075 109.683075l-354.708628 0c-60.576657 0-109.683075-49.106418-109.683075-109.683075l0-673.980161c0-60.576657 49.106418-109.683075 109.683075-109.683075l354.708628 0c60.576657 0 109.683075 49.106418 109.683075 109.683075L798.723234 721.217255zM264.557398 658.984888l494.256894 0 0-529.049305-494.256894 0L264.557398 658.984888zM334.356091 790.991388 689.016623 790.991388c38.548968 0 69.798692-31.249725 69.798692-69.798692l0-22.298865-494.256894 0 0 22.298865C264.557398 759.74064 295.807123 790.991388 334.356091 790.991388zM689.016623-22.53704 334.356091-22.53704c-38.548968 0-69.798692 31.249725-69.798692 69.798692l0 43.788296 494.256894 0 0-43.788296C758.814292 8.712685 727.564567-22.53704 689.016623-22.53704zM513.173732 66.056718c-16.70752 0-30.30112-13.5936-30.30112-30.30112 0-16.70752 13.5936-30.30112 30.30112-30.30112s30.299073 13.5936 30.299073 30.30112C543.472805 52.463118 529.881253 66.056718 513.173732 66.056718z"  horiz-adv-x="1024" />

    
    <glyph glyph-name="jifen" unicode="&#58906;" d="M433.68843 503.051296c101.861174 0 207.804288 22.402015 271.42708 65.115205l0-77.763622 58.948509 0L764.064018 660.668163c0 102.359862-170.169196 157.621732-330.275851 157.621732C273.676647 818.289895 103.412579 763.0280250000001 103.412579 660.668163l0-464.692803c0-102.359862 170.16433-157.621732 330.275851-157.621732l0 58.843906c-168.174446 0-271.431945 57.555833-271.431945 98.777826L162.256485 335.671102c63.627657-42.613453 169.471033-65.12007 271.431945-65.12007l0 58.948509c-168.174446 0-271.431945 57.550967-271.431945 98.771745L162.256485 568.0667639999999C225.884142 525.453311 331.827255 503.051296 433.68843 503.051296L433.68843 503.051296zM433.68843 759.445989c168.174446 0 271.42708-57.557049 271.42708-98.777826 0-41.221993-103.25385-98.772961-271.42708-98.772961-168.174446 0-271.431945 57.550967-271.431945 98.772961C162.256485 701.88894 265.613722 759.445989 433.68843 759.445989L433.68843 759.445989zM697.747098 470.789866c-146.266253 0-222.736937-56.258029-222.736937-111.819112l0-298.614061c0-55.556218 76.570421-111.815463 222.736937-111.815463 145.177655 0 221.544952 55.461345 222.741802 110.622262l0.099737 0L920.588637 358.97075400000006C920.4889 414.531837 844.018216 470.789866 697.747098 470.789866L697.747098 470.789866zM697.747098 411.942311c108.137339 0 163.893031-37.140054 163.893031-52.971557s-55.755693-52.971557-163.893031-52.971557c-108.132473 0-163.893031 37.140054-163.893031 52.971557S589.613408 411.942311 697.747098 411.942311L697.747098 411.942311zM697.747098 7.385135999999989c-108.132473 0-163.893031 37.140054-163.893031 52.971557l0 71.296497c37.339529-20.316041 92.207314-33.857231 163.893031-33.857231 71.690582 0 126.45863 13.541189 163.893031 33.857231l0-71.296497C861.640129 44.52640599999995 805.884436 7.385135999999989 697.747098 7.385135999999989L697.747098 7.385135999999989zM697.747098 156.74446799999998c-108.132473 0-163.893031 37.140054-163.893031 52.971557l0 71.291632c37.339529-20.311176 92.207314-33.852366 163.893031-33.852366 71.690582 0 126.45863 13.541189 163.893031 33.852366l0-71.291632C861.640129 193.88452199999995 805.884436 156.74446799999998 697.747098 156.74446799999998L697.747098 156.74446799999998zM697.747098 156.74446799999998"  horiz-adv-x="1024" />

    
    <glyph glyph-name="icon1" unicode="&#58960;" d="M818.70833333 372.96875l0-316.3125c0-26.90625-21.75-48.65625-48.65625-48.65625L624.45833333 8 624.45833333 252.21875c0 13.40625-10.875 24.28125-24.28125 24.28125L454.20833333 276.5c-13.40625 0-24.28125-10.875-24.28125-24.28125l0-244.125L284.23958333 8.09375c-26.90625 0-48.65625 21.75-48.65625 48.65625L235.58333333 372.96875 186.45833333 372.96875l0-364.78125c0-26.90625 15.65625-48.65625 42.5625-48.65625l207.28125 0 0 0.75 42.28125 0L478.58333333 240.03125l96.5625 0 0.75-279.65625 42.28125 0 0-0.75 207.28125 0c26.90625 0 42.5625 21.75 42.5625 48.65625L868.02083333 372.96875 818.70833333 372.96875zM527.14583333 824.1875c-6.46875 0-12.9375-2.34375-17.4375-7.125L92.42708333 385.53125c-9.375-9.65625-9.09375-25.03125 0.5625-34.40625 4.6875-4.59375 10.78125-6.84375 16.875-6.84375 6.375 0 12.75 2.4375 17.53125 7.40625l399.75 413.53125 399.75-413.53125c4.78125-4.96875 11.15625-7.40625 17.4375-7.40625 6.09375 0 12.1875 2.25 16.875 6.84375 9.65625 9.375 9.9375 24.75 0.5625 34.40625L544.67708333 817.15625C540.08333333 821.84375 533.61458333 824.1875 527.14583333 824.1875L527.14583333 824.1875z"  horiz-adv-x="1024" />

    
    <glyph glyph-name="dingwei" unicode="&#58903;" d="M515.20374781-53.488342500000044c-54.94866469-0.33577219-330.54580969 415.73221312-330.54580969 554.86188375 0 183.89867625 147.98542594 332.8875825 330.54580969 332.8875825 182.51721375 0 330.50359875-148.98794625 330.50359875-332.8875825C845.70734656 364.07622844 569.28036406-53.82411562000004 515.20374781-53.488342500000044zM515.20374781 796.51263656c-161.59667719 0-292.54597406-131.61700406-292.54597406-293.80272187 0-122.9310525 243.89831719-499.74341438 292.54597406-499.57456875 47.85523406-0.16980469 292.54501406 378.31182469 292.54501406 499.57456875C807.74876188 664.8956325 676.76013219 796.51263656 515.20374781 796.51263656zM515.20374781 362.57676469c-76.07929781 0-137.7549225 62.13419344-137.7549225 138.79677562 0 76.49853375 61.67562375 138.63272719 137.7549225 138.63272719 76.03900594 0 137.71462969-62.13419344 137.71462969-138.63272719C652.9183775 424.71095812 591.24179375 362.57676469 515.20374781 362.57676469zM515.20374781 590.73503344c-48.48360844 0-87.77089125-39.41775469-87.77089125-88.02511875 0-48.77141344 39.28824281-88.19012719 87.77089125-88.19012719 48.43755937 0 87.73155844 39.41775469 87.73155844 88.19012719C602.93530625 551.31727875 563.64130719 590.73503344 515.20374781 590.73503344z"  horiz-adv-x="1024" />

    
    <glyph glyph-name="hj2" unicode="&#59027;" d="M935.43125 623.4309375c0 0.22875 0 0.5690625-0.118125 0.7978125 0 0.3459375 0 0.575625-0.1115625 0.916875 0 0.3459375-0.1115625 0.6871875-0.1115625 1.035 0 0.22875 0 0.4565625-0.118125 0.6796875 0 0.3459375-0.1115625 0.8053125-0.22875 1.145625 0 0.22875-0.1115625 0.3459375-0.1115625 0.5746875-0.118125 0.3421875-0.118125 0.79875-0.2296875 1.14 0 0.22875-0.118125 0.3459375-0.118125 0.5746875-0.1115625 0.3421875-0.22875 0.688125-0.34125 1.145625-0.118125 0.22875-0.118125 0.459375-0.22875 0.5709375l-0.3459375 1.0265625c-0.1115625 0.2296875-0.1115625 0.459375-0.22875 0.688125-0.1134375 0.3459375-0.2296875 0.5746875-0.3421875 0.916875-0.118125 0.22875-0.22875 0.5746875-0.3459375 0.7978125-0.1115625 0.22875-0.223125 0.5746875-0.34125 0.8053125-0.1115625 0.34125-0.22875 0.5690625-0.34125 0.9159375l-0.3478125 0.688125c-0.1115625 0.34125-0.34125 0.6796875-0.4565625 0.9103125-0.1115625 0.2296875-0.22875 0.3478125-0.34125 0.575625-0.22875 0.34125-0.3459375 0.6871875-0.575625 1.0284375-0.1115625 0.118125-0.22875 0.3459375-0.34125 0.4565625l-0.6871875 1.0284375c-0.1115625 0.118125-0.22875 0.3459375-0.3421875 0.4565625-0.22875 0.3459375-0.4565625 0.6871875-0.6871875 0.916875-0.118125 0.22875-0.22875 0.3459375-0.4565625 0.5746875-0.2296875 0.223125-0.459375 0.5690625-0.688125 0.7978125-0.22875 0.2296875-0.4565625 0.459375-0.5690625 0.688125-0.22875 0.22875-0.3459375 0.4565625-0.575625 0.6871875-0.7978125 0.91125-1.7146875 1.715625-2.5134375 2.514375-0.2296875 0.22875-0.459375 0.3459375-0.688125 0.575625-0.22875 0.22875-0.4565625 0.4565625-0.6871875 0.5690625-0.2296875 0.22875-0.575625 0.4565625-0.8053125 0.6871875-0.223125 0.1134375-0.34125 0.3421875-0.5690625 0.459375-0.3421875 0.22875-0.688125 0.4565625-0.916875 0.6871875-0.1115625 0.1115625-0.34125 0.22875-0.4565625 0.3421875l-1.0284375 0.6871875c-0.1115625 0.1115625-0.34125 0.22875-0.4565625 0.34125-0.3421875 0.22875-0.688125 0.3459375-1.0284375 0.575625-0.22875 0.1115625-0.3459375 0.22875-0.5746875 0.34125-0.3421875 0.118125-0.688125 0.3459375-0.91125 0.4565625l-0.688125 0.3459375c-0.3459375 0.1134375-0.5746875 0.2296875-0.9159375 0.3421875-0.22875 0.118125-0.575625 0.22875-0.8053125 0.3459375-0.22875 0.1115625-0.5690625 0.223125-0.7978125 0.34125-0.3421875 0.1115625-0.5709375 0.22875-0.916875 0.34125-0.22875 0.118125-0.4565625 0.118125-0.6871875 0.2296875l-1.0284375 0.3459375c-0.22875 0.1115625-0.4565625 0.1115625-0.5709375 0.22875-0.3459375 0.1115625-0.6871875 0.22875-1.14375 0.34125-0.2296875 0-0.3478125 0.118125-0.575625 0.118125-0.34125 0.1115625-0.7978125 0.22875-1.14 0.22875-0.22875 0-0.4565625 0.1134375-0.5746875 0.1134375-0.34125 0.118125-0.79875 0.118125-1.145625 0.22875-0.22875 0-0.451875 0.118125-0.6796875 0.118125-0.3459375 0-0.688125 0.1115625-1.035 0.1115625-0.34125 0-0.5690625 0-0.916875 0.118125-0.22875 0-0.5690625 0-0.7978125 0.1115625h-227.2565625c-20.25375 0-36.620625-16.365-36.620625-36.620625 0-20.25375 16.366875-36.6140625 36.620625-36.6140625h136.970625l-2.9728125-2.9784375-203.690625-203.6859375 0.3459375-0.3459375-46.57125-46.57125-146.128125 146.128125c-7.213125 7.2084375-16.7128125 10.755-26.2059375 10.755-9.496875 0.118125-18.9965625-3.4303125-26.205-10.755l-264.793125-264.676875c-14.304375-14.304375-14.304375-37.5384375 0-51.841875 14.304375-14.304375 37.5309375-14.304375 51.8353125 0l239.16375 239.165625 146.011875-146.0165625c7.3246875-7.3265625 16.8234375-10.8684375 26.32125-10.756875 9.493125-0.1115625 19.108125 3.4303125 26.315625 10.756875l171.52875 171.5334375c0.688125 0.688125 1.2628125 1.258125 1.83375 1.9453125l104.59125 104.59125v-136.9771875c0-20.25375 16.3603125-36.61875 36.6140625-36.61875s36.620625 16.365 36.620625 36.61875v220.3921875c0 0.22875 0.118125 0.459375 0.118125 0.575625 0 0.22875 0.1115625 0.4565625 0.1115625 0.6871875 0 0.34125 0.1115625 0.688125 0.1115625 1.0284375s0 0.5690625 0.118125 0.9159375c0 0.2296875 0 0.5709375 0.1115625 0.79875-0.114375 1.374375-0.114375 2.6315625-0.114375 3.778125v0zM935.43125 623.4309375z"  horiz-adv-x="1024" />

    
    <glyph glyph-name="icon9" unicode="&#58961;" d="M915.38409131 21.299999999999955L790.30454521 146.37954520999995C858.52045479 219.48409131000005 900.63636348 317.25681826000005 900.63636348 424.90909131 900.63636348 650.50227305 717.13863653 834 491.54545479 834 265.97272695 834 82.45454521 650.50227305 82.45454521 424.90909131 82.45454521 343.80681826 106.24318174 265.30227305000005 151.28409131 197.94545478999999 160.69318174 183.81136347999995 179.73636347 180.10909131000005 193.82954521 189.47727305 207.92272695 198.88636348 211.70681826 217.92954521000001 202.29772695 232.02272695 164.04772695 289.275 143.81818174 355.95681826 143.81818174 424.90909131 143.81818174 616.65 299.80454521 772.63636348 491.54545479 772.63636348 683.28636347 772.63636348 839.27272695 616.65 839.27272695 424.90909131 839.27272695 233.16818174000002 683.28636347 77.18181826 491.54545479 77.18181826 422.34772695 77.18181826 355.50227305 97.51363652999999 298.18863652 135.94772694999995 284.13636348 145.33636348000005 265.07272695 141.63409131000003 255.60227305 127.56136347999995 246.17272695 113.48863653000001 249.93636347 94.42499999999995 263.98863652 84.97500000000002 331.44772695 39.72954520999997 410.13636347 15.81818174 491.54545479 15.81818174 572.54545479 15.81818174 647.92045479 39.79090869000004 711.51363652 80.55681826L843.07727305-51.006818260000045C853.05909131-60.98863652 866.15-66 879.22045479-66 892.31136347-66 905.40227305-60.98863652 915.38409131-51.006818260000045 935.36818174-31.043181740000023 935.36818174 1.3159086900000148 915.38409131 21.299999999999955ZM279.575 485.34204521C302.38181826 573.7875 375.69090869 638.28068174 466.34545479 649.63295479 483.15909131 651.7397730499999 495.08409131 667.08068174 492.97727305 683.89431826 490.87045479 700.70795479 475.40681826 712.65340869 458.71590869 710.52613653 342.92272695 696.02386347 249.30227305 613.63295479 220.175 500.64204521 215.94090869 484.2375 225.8 467.50568174 242.225 463.29204521 244.78181826 462.61704521 247.35909131 462.31022695 249.89545479 462.31022695 263.55909131 462.31022695 276.01590869 471.49431826 279.575 485.34204521Z"  horiz-adv-x="1024" />

    
    <glyph glyph-name="xiangji" unicode="&#58891;" d="M855.333556 669.7910019999999l-65.481364 0c-22.407336 0-54.920844 20.174482-64.005756 31.094182l-45.11757 53.937446c-16.010649 19.114336-51.17452 51.17452-107.269096 51.17452L454.571033 805.99715c-57.760518 0-89.630367-29.220508-110.939695-54.69367l-43.869137-52.460816c-7.986905-9.55768-41.559535-29.05064-63.778582-29.05064l-64.005756 0c-56.662511 0-102.726639-46.159296-102.726639-102.896508l0-501.95625c0-56.756655 46.064129-102.93437 102.726639-102.93437l683.35467 0c56.662511 0 102.726639 46.177716 102.726639 102.93437L958.059172 566.894494C958.060195 623.6327289999999 911.996067 669.7910019999999 855.333556 669.7910019999999zM454.571033 737.1081770000001l118.850875 0c26.722618 0 44.399209-14.421454 54.504358-26.495444l46.291302-55.356772c19.038612-22.785959 69.796646-54.334489 116.845195-54.334489l64.23293 0c18.697851 0 33.952276-15.272845 33.952276-34.028001l0-501.95625c0-18.755156-15.21554-34.028001-33.914414-34.028001L171.978886 30.909220000000005c-18.735713 0-33.952276 15.272845-33.952276 34.028001L138.02661 566.912913c0 18.755156 15.21554 34.028001 33.952276 34.028001l66.162886 0c44.738947 0 96.027054 31.737842 114.384144 53.67241l43.906999 52.518121C412.329976 726.112752 426.939719 737.1081770000001 454.571033 737.1081770000001zM513.655709 144.78477999999996c36.82879 0 72.900334 10.692526 104.315834 30.924313 15.934924 10.238179 20.590967 31.586392 10.409071 47.597041-4.996804 7.77815-12.679787 13.134135-21.687952 15.083533-8.894577 1.949398-18.168802 0.283456-25.889647-4.712325-20.363793-13.077853-43.6041-20.00359-67.147306-20.00359-68.812225 0-124.831077 56.114019-124.831077 125.058251 0 68.963675 56.018851 125.077693 124.831077 125.077693s124.793214-56.114019 124.793214-125.077693c0-18.98233 15.442714-34.425044 34.444487-34.425044 18.962887 0 34.368762 15.442714 34.368762 34.425044 0 106.966197-86.829578 193.965643-193.60544 193.965643S320.012408 445.677734 320.012408 338.711538C320.012408 231.784226 406.878824 144.78477999999996 513.655709 144.78477999999996z"  horiz-adv-x="1024" />

    
    <glyph glyph-name="kaquan" unicode="&#58942;" d="M848.8448-35.06880000000001L350.0672-35.06880000000001c-12.72 0-23.0352 10.3104-23.0352 23.0304l0 0c0 12.72 10.3104 23.0352 23.0352 23.0352l498.7728 0c30.0528 0 54.4128 24.36 54.4128 54.4176l0 77.8848c-53.1024 19.584-88.6032 70.3392-88.6032 127.0944 0 56.7552 35.5008 107.5104 88.6032 127.0848L903.2528 490.3584c0 30.0528-24.36 54.4128-54.4128 54.4128l-498.7728 0c-12.72 0-23.0352 10.3104-23.0352 23.0304l0 0c0 12.72 10.3104 23.0352 23.0304 23.0352l498.7776 0c55.5024 0 100.488-44.9904 100.488-100.4832l0-95.76c0-17.6352-11.2224-33.4512-27.9744-39.576-19.8-7.2384-37.7712-19.3968-48.048-37.8096-30.12-53.9712-2.9424-113.7072 47.424-131.2416 17.1024-5.952 28.5984-21.9456 28.5984-39.7968l0-80.76C949.3232 9.916799999999967 904.3376-35.06880000000001 848.8448-35.06880000000001L848.8448-35.06880000000001zM268.5488-35.06880000000001L175.1648-35.06880000000001c-55.4976 0-100.488 44.9904-100.488 100.488l0 80.7552c0 17.6448 11.2224 33.4704 27.9792 39.5808 19.7952 7.224 37.752 19.3776 48.024 37.7712 30.1392 53.9904 2.9616 113.7408-47.4096 131.2752-17.1024 5.9568-28.5936 21.9456-28.5936 39.7968l0 95.76c0 55.4976 44.9952 100.488 100.488 100.4832l93.3936 0c12.7152 0 23.0304-10.3104 23.0304-23.0352l0 0c0-12.72-10.3104-23.0304-23.0352-23.0304l-93.3888 0c-30.048 0-54.4128-24.36-54.4128-54.4128l0-92.8896c53.0976-19.5648 88.5984-70.32 88.5984-127.0848 0-56.7504-35.5008-107.5104-88.5984-127.0848l0-77.8896c0-30.0576 24.3648-54.4176 54.4176-54.4176l93.384 0c12.72 0 23.0352-10.3152 23.0352-23.04l0 0C291.584-24.753600000000006 281.2736-35.06880000000001 268.5488-35.06880000000001L268.5488-35.06880000000001zM308.8304 483.0624L308.8304 483.0624zM286.7312 483.0624L286.7312 483.0624zM308.8304 411.8208L308.8304 411.8208zM286.7312 411.8208L286.7312 411.8208zM308.8304 342.576L308.8304 342.576zM286.7312 342.576L286.7312 342.576zM308.8304 277.67999999999995L308.8304 277.67999999999995zM286.7312 277.67999999999995L286.7312 277.67999999999995zM308.8304 212.58720000000005L308.8304 212.58720000000005zM286.7312 212.58720000000005L286.7312 212.58720000000005zM308.8304 143.3424L308.8304 143.3424zM286.7312 143.3424L286.7312 143.3424zM308.8304 78.44640000000004L308.8304 78.44640000000004zM286.7312 78.44640000000004L286.7312 78.44640000000004zM502.9184 229.10879999999997c-10.9488 0-19.8576-8.9088-19.8576-19.8576 0-10.9488 8.904-19.8624 19.8576-19.8624l81.9888 0 0-53.5584c0-10.9488 8.904-19.8576 19.8576-19.8576 10.9536 0 19.8576 8.904 19.8576 19.8576l0 53.5584 81.984 0c10.9536 0 19.8576 8.9088 19.8576 19.8624 0 10.944-8.904 19.8576-19.8576 19.8576l-81.984 0 0 40.656 77.472 0c10.9536 0 19.8576 8.904 19.8576 19.8576s-8.904 19.8576-19.8576 19.8576l-77.472 0 0 28.4352 85.3728 66.3456c4.1904 3.2544 6.8592 7.944 7.512 13.2048 0.6624 5.2656-0.768 10.4688-4.0176 14.6544-6.7296 8.6496-19.2432 10.2096-27.8688 3.4944l-80.8608-62.8368-80.8656 62.8368c-8.64 6.7104-21.1488 5.1648-27.8736-3.4944-3.2496-4.1904-4.6752-9.3936-4.0176-14.6544 0.6624-5.2656 3.3264-9.9504 7.5168-13.2048l85.3776-66.3456 0-28.4352L507.4448 309.48c-10.9536 0-19.8624-8.904-19.8624-19.8576s8.9088-19.8576 19.8624-19.8576l77.4672 0 0-40.656L502.9184 229.10879999999997 502.9184 229.10879999999997zM840.9008 792.048l-657.8016 0c-55.4976 0-100.488-44.9904-100.488-100.488l0-59.6064c0-12.72 10.3152-23.0352 23.0352-23.0352 12.7248 0 23.04 10.3104 23.04 23.0352L128.6864 691.5696c0 30.0528 24.36 54.4128 54.4128 54.4128l657.8016 0c30.0528 0 54.4128-24.36 54.4128-54.4128l0-59.6064c0-12.72 10.3104-23.0352 23.04-23.0352 12.72 0 23.0352 10.3104 23.0352 23.0352L941.3888 691.5648C941.3888 747.0624 896.3984 792.048 840.9008 792.048L840.9008 792.048z"  horiz-adv-x="1024" />

    
    <glyph glyph-name="icon4" unicode="&#58886;" d="M512.1-66.10000000000002c-248.1 0-450 201.9-450 450s201.9 450 450 450 450-201.9 450-450-201.9-450-450-450z m0 857.1C287.6 791 105 608.3 105 383.9s182.6-407.1 407.1-407.1 407.1 182.6 407.1 407.1S736.6 791 512.1 791zM407.1 572.2h156.1c89.7 0 134.5-38.2 134.5-114.5 0-77-45.2-115.5-135.6-115.5h-97.6v-146.6H407V572.2z m57.5-49.1v-131.9h93.9c28.5 0 49.2 5.3 62.2 15.8 13 10.9 19.5 27.8 19.5 50.6 0 23.5-6.7 40.1-20 49.6-13 10.5-33.6 15.8-61.7 15.8h-93.9z"  horiz-adv-x="1024" />

    
    <glyph glyph-name="gengduo" unicode="&#58957;" d="M512 816c-237.6 0-432-194.4-432-432s194.4-432 432-432 432 194.4 432 432-194.4 432-432 432z m0-816c-211.2 0-384 172.8-384 384s172.8 384 384 384 384-172.8 384-384-172.8-384-384-384zM512 384m-48 0a48 48 0 1 1 96 0 48 48 0 1 1-96 0ZM320 384m-48 0a48 48 0 1 1 96 0 48 48 0 1 1-96 0ZM704 384m-48 0a48 48 0 1 1 96 0 48 48 0 1 1-96 0Z"  horiz-adv-x="1024" />

    
    <glyph glyph-name="qianfei" unicode="&#58944;" d="M711.28571416 204c-45 19.28571416-83.57142832 48.21428584-115.71428584 83.57142832-28.92857168 35.35714248-54.64285752 80.35714248-73.9285708 131.78571416 3.21428584 12.85714248 3.21428584 25.71428584 3.21428496 38.5714292 0 12.85714248 0 25.71428584 3.21428584 38.57142832h125.35714335c9.64285752 0 16.07142832-3.21428584 16.07142833-9.64285752 0-3.21428584 0-6.42857168-3.21428584-12.85714248s-6.42857168-16.07142832-9.64285664-25.71428584c-9.64285752-22.5-22.5-48.21428584-41.78571504-70.71428583-6.42857168-3.21428584-6.42857168-9.64285752-6.42857081-12.85714249 0-6.42857168 3.21428584-9.64285752 6.42857081-12.85714336 3.21428584-3.21428584 6.42857168-6.42857168 12.85714336-6.4285708 3.21428584 0 9.64285752 3.21428584 16.07142832 9.64285664 3.21428584 3.21428584 6.42857168 6.42857168 9.64285751 12.85714336 3.21428584 6.42857168 6.42857168 12.85714248 12.85714249 22.5 6.42857168 9.64285752 12.85714248 19.28571416 16.07142832 28.9285708 3.21428584 9.64285752 9.64285752 19.28571416 12.85714336 28.92857168 3.21428584 12.85714248 6.42857168 19.28571416 9.64285664 28.92857168 3.21428584 6.42857168 3.21428584 12.85714248 3.21428584 16.07142832 0 6.42857168 0 12.85714248-3.21428584 16.07142832-3.21428584 6.42857168-6.42857168 9.64285752-9.64285664 12.85714336-3.21428584 3.21428584-9.64285752 6.42857168-16.07142832 9.64285664-6.42857168 3.21428584-12.85714248 3.21428584-16.0714292 3.21428584h-228.21428584c9.64285752 22.5 12.85714248 38.57142832 12.85714336 48.21428584 0 12.85714248-6.42857168 19.28571416-19.28571417 19.28571416-6.42857168 0-9.64285752-3.21428584-12.85714335-6.4285708-3.21428584-3.21428584-6.42857168-9.64285752-6.4285708-19.28571504-12.85714248-57.85714248-38.57142832-112.5-77.14285752-167.14285664-6.42857168-6.42857168-9.64285752-12.85714248-9.64285752-19.28571416v-12.85714336c0-3.21428584 3.21428584-6.42857168 6.42857168-6.4285708s6.42857168-3.21428584 9.64285751-3.21428584c6.42857168 0 9.64285752 3.21428584 16.07142833 9.64285664 3.21428584 3.21428584 6.42857168 6.42857168 9.64285752 16.0714292 3.21428584 6.42857168 9.64285752 16.07142832 19.28571415 28.9285708 6.42857168 12.85714248 12.85714248 25.71428584 19.28571417 35.35714336 6.42857168 9.64285752 12.85714248 22.5 16.07142832 35.35714248h77.14285752v-6.42857168c0-35.35714248-3.21428584-67.5-9.64285752-96.4285708-6.42857168-28.92857168-16.07142832-54.64285752-28.92857168-77.14285752s-32.14285752-45-54.64285664-64.28571416c-22.5-19.28571416-51.42857168-38.57142832-83.57142832-51.42857168-16.07142832-6.42857168-22.5-12.85714248-22.5-22.5 0-3.21428584 0-6.42857168 3.21428496-12.85714248 3.21428584-3.21428584 6.42857168-6.42857168 12.85714336-6.42857168 3.21428584 0 12.85714248 3.21428584 25.71428583 9.64285752 12.85714248 6.42857168 25.71428584 12.85714248 41.78571417 22.5 32.14285752 16.07142832 57.85714248 41.78571416 80.35714248 67.5 22.5 28.92857168 41.78571416 61.07142832 54.64285752 99.64285664 6.42857168-16.07142832 16.07142832-32.14285752 25.71428583-48.21428584 9.64285752-16.07142832 19.28571416-28.92857168 28.92857081-41.78571416 25.71428584-32.14285752 54.64285752-57.85714248 86.78571504-77.14285664 32.14285752-19.28571416 51.42857168-28.92857168 64.28571415-28.92857168 6.42857168 0 12.85714248 3.21428584 12.85714249 6.42857168 3.21428584 3.21428584 3.21428584 9.64285752 3.21428584 12.85714248-3.21428584 12.85714248-9.64285752 22.5-25.71428584 25.71428584zM512 785.78571416c221.78571416 0 401.78571416-180 401.78571416-401.78571416S733.78571416-17.785714159999998 512-17.785714159999998 110.21428584 162.21428584 110.21428584 384 290.21428584 785.78571416 512 785.78571416M512 834C264.5 834 62 631.5 62 384s202.5-450 450-450 450 202.5 450 450S759.5 834 512 834z"  horiz-adv-x="1024" />

    
    <glyph glyph-name="cart_icon" unicode="&#58968;" d="M927.01953125 139.86621093999997H311.55664062a24.37207031 24.37207031 0 0 0-24.24902343 21.71777343l-64.67871094 582.01171875a73.46777344 73.46777344 0 0 1-55.02832031 62.94726563L102.89550781 822.72363281A24.40722656 24.40722656 0 0 1 91.00390625 775.37695313l64.73144531-16.21582032A24.44238281 24.44238281 0 0 0 174.08691406 738.19921875l64.67871094-582.01171875a73.15136719 73.15136719 0 0 1 72.79101562-65.16210938H927.01953125a24.41601563 24.41601563 0 0 1 0 48.83203126zM353.3046875-6.62109375m-48.82324219 0a48.82324219 48.82324219 0 1 1 97.64648438 0 48.82324219 48.82324219 0 1 1-97.64648438 0ZM841.57226563-6.62109375m-48.82324219 0a48.82324219 48.82324219 0 1 1 97.64648437 0 48.82324219 48.82324219 0 1 1-97.64648437 0ZM316.68066406 628.15136719l585.92285156 0.0703125-82.6171875-326.953125a24.90820313 24.90820313 0 0 0-21.84082031-18.45703125l-435.14648437-45.421875a24.40722656 24.40722656 0 0 1 2.50488281-48.68261719 23.19433594 23.19433594 0 0 1 2.54882812 0.140625l435.05859375 45.39550781a73.828125 73.828125 0 0 1 64.24804688 55.0546875l82.6171875 326.953125a48.33984375 48.33984375 0 0 1-8.7890625 41.79199219 48.82324219 48.82324219 0 0 1-38.8125 18.93164063H316.68066406a24.41601563 24.41601563 0 0 1 0-48.83203125z"  horiz-adv-x="1024" />

    
    <glyph glyph-name="sousuo" unicode="&#58904;" d="M596.66 298.26c8.52 7.2 31.62-4.62 51.6-26.34l253.26-274.8c19.98-21.72 21.6-51.48 3.72-66.54-18-15-46.98-8.22-64.92 15.18L613.7 243c-17.88 23.4-25.5 48.24-17.04 55.32zM557 270.12a270 270 0 1 1-270 467.64 270 270 0 0 1 270-467.64z m30-51.96a330 330 0 1 0-330 571.56 330 330 0 0 0 330-571.56z"  horiz-adv-x="1024" />

    
    <glyph glyph-name="sjxia" unicode="&#58929;" d="M130.255 574.8720000000001L512 193.12800000000004l381.745 381.745h-763.49z"  horiz-adv-x="1024" />

    
    <glyph glyph-name="fankui" unicode="&#59130;" d="M386.844444 99.555556L170.666667-71.111111v170.666667H56.888889V782.222222h910.222222v-682.666666H386.844444z m-22.755555 56.888888H910.222222V725.333333H113.777778v-568.888889h113.777778v-108.088888L364.088889 156.444444zM227.555556 384h568.888888v-56.888889H227.555556V384z m0 170.666667h568.888888v-56.888889H227.555556V554.666667z"  horiz-adv-x="1024" />

    
    <glyph glyph-name="jfsc" unicode="&#58887;" d="M958.615 532.038c0 63.861-52.785 115.8-117.674 115.8H579.425l134.331 132.205c11.903 11.683 11.903 30.57 0 42.254-11.862 11.683-31.03 11.683-42.933 0L511.034 665.05 353.156 820.4159999999999c-11.864 11.683-31.07 11.683-42.933 0a29.535 29.535 0 0 1 0-42.258l132.44-130.35H183.036c-64.886 0-117.65-51.939-117.65-115.801 0-57.016 42.174-104.262 97.408-113.796v-391.62c0-49.43 36.982-89.651 82.423-89.651h533.605c45.42 0 82.423 40.221 82.423 89.65V418.24c55.173 9.506 97.37 56.751 97.37 113.798z m-832.545 0c0 30.901 25.558 56.033 56.947 56.033h298.598v-112.065H183.017c-31.389 0-56.947 25.132-56.947 56.032z m652.711-535.332H245.195c-11.564 0-21.694 13.985-21.694 29.885V416.24h258.114v-167.287c0-16.527 13.596-29.884 30.354-29.884 16.78 0 30.375 13.357 30.375 29.884V416.241h258.134v-389.65c0-15.9-10.151-29.885-21.697-29.885z m62.16 479.3H542.343V588.071h298.598c31.41 0 56.945-25.133 56.945-56.033 0-30.9-25.535-56.032-56.945-56.032z"  horiz-adv-x="1024" />

    
    <glyph glyph-name="task" unicode="&#58896;" d="M158.42857168 769.71428584c-19.28571416 0-32.14285752-12.85714248-32.14285752-32.14285752v-707.14285665c0-19.28571416 12.85714248-32.14285752 32.14285752-32.14285751h707.14285665c19.28571416 0 32.14285752 12.85714248 32.14285751 32.14285751v707.14285665c0 19.28571416-12.85714248 32.14285752-32.14285751 32.14285752h-707.14285665z m0 64.28571416h707.14285665c51.42857168 0 96.42857168-45 96.42857167-96.42857168v-707.14285665c0-51.42857168-45-96.42857168-96.42857167-96.42857167h-707.14285665C107-66 62-21 62 30.428571680000005v707.14285664C62 789 107 834 158.42857168 834z m385.71428584-257.14285752h192.85714248c19.28571416 0 32.14285752-12.85714248 32.14285752-32.14285664s-12.85714248-32.14285752-32.14285752-32.14285752h-192.85714248c-19.28571416 0-32.14285752 12.85714248-32.14285752 32.14285752s12.85714248 32.14285752 32.14285752 32.14285664z m-192.85714336-385.71428496c19.28571416 0 32.14285752 12.85714248 32.14285752 32.14285664S370.57142832 255.42857168 351.28571416 255.42857168s-32.14285752-12.85714248-32.14285664-32.14285752 12.85714248-32.14285752 32.14285664-32.14285664z m0-64.28571504C299.85714248 126.85714248 254.85714248 171.85714248 254.85714248 223.28571416S299.85714248 319.71428584 351.28571416 319.71428584 447.71428584 274.71428584 447.71428584 223.28571416 402.71428584 126.85714248 351.28571416 126.85714248z m-6.42857168 392.14285752L274.14285752 589.71428584c-12.85714248 12.85714248-32.14285752 12.85714248-45 0-12.85714248-12.85714248-12.85714248-32.14285752 0-45L319.14285752 454.71428584c6.42857168-6.42857168 19.28571416-12.85714248 25.71428496-12.85714336s19.28571416 0 25.71428584 6.42857168l135 135c12.85714248 12.85714248 12.85714248 32.14285752 0 45-12.85714248 12.85714248-32.14285752 12.85714248-45 0L344.85714248 519zM544.14285752 255.42857168h192.85714248c19.28571416 0 32.14285752-12.85714248 32.14285752-32.14285752s-12.85714248-32.14285752-32.14285752-32.14285664h-192.85714248c-19.28571416 0-32.14285752 12.85714248-32.14285752 32.14285664s12.85714248 32.14285752 32.14285752 32.14285752z"  horiz-adv-x="1024" />

    
    <glyph glyph-name="icon8" unicode="&#58937;" d="M637.68720026 699.75506134H386.31279974a31.42180006 31.42180006 0 0 1 0-62.84360011h251.37440052a31.42180006 31.42180006 0 0 1 0 62.84360011zM862.66452702-2.6354304499999444V825.86906337h-55.23363294v-0.08285045h-590.86178816V825.86906337h-55.23363294v-828.50449382h-82.85044937v-55.23363292h220.93453169v55.23363292h-82.85044938V770.55258h590.86178816V-2.6354304499999444h-82.85044938v-55.23363292h220.93453169v55.23363292h-82.85044937zM370.5432457 556.71456214h67.03317346v-442.51949463h-67.03317346zM512.81469609-264.1070995m-89.75465351 0a89.75465349 89.75465349 0 1 1 179.50930701 0 89.75465349 89.75465349 0 1 1-179.50930701 0ZM512.98873931 489.63111378a75.41232014 75.41232014 0 1 0-75.41232015-75.41232014 75.49611162 75.49611162 0 0 0 75.41232015 75.41232014m0 67.03317347a142.44549361 142.44549361 0 1 1 142.44549363-142.44549361 142.44549361 142.44549361 0 0 1-142.44549363 142.44549361z"  horiz-adv-x="1024" />

    
    <glyph glyph-name="icon2" unicode="&#58897;" d="M254.9 327.2c-4.7 0-9.3 0.2-14.1 0.6-39.1 3.4-75.2 21.9-101.5 52.2-25.8 29.6-40 67.5-40 106.9 0 20.2 4.8 40.4 13.8 58.4l72.4 144.9c12.2 24.4 30.9 44.8 54.1 59.2 23.2 14.3 49.8 21.9 77.1 21.9h397.2c27.3 0 53.9-7.6 77.1-21.9 23.2-14.3 41.9-34.8 54.1-59.2l72.6-145.3c8.8-17.7 13.6-37.5 13.8-57.2v-5c0-85.7-69.7-155.4-155.4-155.4-54.6 0-102.6 28.3-130.4 70.9-27.7-42.7-75.8-70.9-130.4-70.9-54.6 0-102.6 28.3-130.4 70.9-7.1-11-15.6-21.1-25.4-30.1-28.8-26.7-65.6-40.9-104.6-40.9z m61.8 394.1c-36.9 0-70-20.5-86.5-53.4L157.8 523c-5.6-11.1-8.5-23.6-8.5-36 0-56.6 42.1-104.6 95.9-109.3 30-2.6 58.7 7.1 80.7 27.3 21.7 19.9 34.2 48.2 34.2 77.7 0 13.8 11.2 25 25 25s25-11.2 25-25c0-58.1 47.3-105.4 105.4-105.4s105.4 47.3 105.4 105.4c0 13.8 11.2 25 25 25s25-11.2 25-25c0-58.1 47.3-105.4 105.4-105.4 58.1 0 105.3 47.2 105.4 105.3v4.7c-0.1 12.2-3 24.4-8.5 35.3l-72.6 145.3c-16.5 33-49.6 53.4-86.5 53.4H316.7zM733.2-6.2H297.7c-78.2 0-141.8 63.6-141.8 141.8V257.3c0 13.8 11.2 25 25 25s25-11.2 25-25v-121.7c0-50.6 41.2-91.8 91.8-91.8h435.6c50.6 0 91.8 41.2 91.8 91.8V257.3c0 13.8 11.2 25 25 25s25-11.2 25-25v-121.7c-0.1-78.1-63.7-141.8-141.9-141.8z"  horiz-adv-x="1024" />

    
    <glyph glyph-name="dianhua" unicode="&#58940;" d="M723.62666667-59.73333333000005c-22.18666667 0-39.25333333 1.70666667-52.90666667 6.82666666h-1.70666667c-322.56 68.26666667-558.08 360.10666667-558.08 691.2C110.93333333 742.4 196.26666667 827.73333333 300.37333333 827.73333333h6.82666667c93.86666667-3.41333333 174.08-80.21333333 180.90666667-172.37333333 6.82666667-90.45333333-47.78666667-170.66666667-133.12-196.26666667-6.82666667-1.70666667-10.24-6.82666667-11.94666667-10.24-1.70666667-3.41333333-3.41333333-8.53333333 0-15.36 39.25333333-92.16 104.10666667-168.96 187.73333333-225.28 8.53333333-5.12 22.18666667-1.70666667 27.30666667 6.82666667 32.42666667 63.14666667 97.28 100.69333333 167.25333333 100.69333333 8.53333333 0 17.06666667 0 25.6-1.70666666 83.62666667-11.94666667 151.89333333-80.21333333 160.42666667-165.54666667 6.82666667-52.90666667-10.24-107.52-46.08-146.77333333S778.24-59.73333333000005 723.62666667-59.73333333000005zM179.2 638.29333333c0-300.37333333 213.33333333-563.2 505.17333333-624.64l3.41333334-1.70666666c10.24-3.41333333 20.48-3.41333333 35.84-3.41333334 34.13333333 0 68.26666667 15.36 90.45333333 39.25333334 22.18666667 25.6 32.42666667 58.02666667 29.01333333 93.86666666-6.82666667 52.90666667-49.49333333 97.28-102.4 104.10666667-51.2 6.82666667-100.69333333-18.77333333-124.58666666-63.14666667-15.36-29.01333333-44.37333333-47.78666667-76.8-47.78666666-17.06666667 0-34.13333333 5.12-47.78666667 15.36-93.86666667 63.14666667-167.25333333 151.89333333-211.62666667 256-10.24 22.18666667-10.24 47.78666667 1.70666667 71.68 10.24 22.18666667 30.72 39.25333333 54.61333333 47.78666666 54.61333333 17.06666667 90.45333333 68.26666667 85.33333334 126.29333334-5.12 59.73333333-54.61333333 107.52-116.05333334 110.93333333h-5.12c-66.56-3.41333333-121.17333333-58.02666667-121.17333333-124.58666667z"  horiz-adv-x="1024" />

    
    <glyph glyph-name="youhui" unicode="&#59251;" d="M897.55881963 647.8113082V399.10972559L525.71477393 29.68413456999997l35.649958-35.89728926 386.75500664 384.28978271V647.8113082zM847.0005998 774.21315469h-338.76364131L75.88026143 361.21489424000004l355.03357675-362.44004151 416.08676162 418.83709131V774.21315469zM218.11943867 427.19132959l12.65079727-12.75152871-12.65079727 12.7389375v0.01259121z m213.04173164-356.4267293L147.82144151 360.05378349l52.51079267 50.1400046c23.47763555-27.18131661 90.71411396-94.50323789 283.17873868-286.74571289l-52.34980255-52.68347491zM796.43968086 438.44897432L519.14743965 159.34356621999996C406.10241055 272.33822958999997 260.32324062 418.59947256 236.10360958 444.3615542l292.37588437 279.30327363H796.44057998V438.44897432zM619.47871455 437.40028799c55.76927695 0 101.11913877 45.35166094 101.11913877 101.1083458 0 55.76837783-45.34986182 101.12003877-101.11913877 101.12003877-55.77107607 0-101.12183701-45.35166094-101.12183701-101.12003878 0.00089912-55.75758487 45.35166094-101.10834668 101.12183701-101.10834579z m0 151.68005771c27.87114727 0 50.5582207-22.68887168 50.55822071-50.57171192 0-27.87294638-22.68707256-50.54832685-50.55822071-50.54832685-27.87294638 0-50.56001894 22.67538047-50.56001895 50.54832685 0 27.88373935 22.68707256 50.57171104 50.56001895 50.57171192z"  horiz-adv-x="1024" />

    
    <glyph glyph-name="daohang" unicode="&#58889;" d="M884.1 756.1c-12.4 12.4-31.3 15.5-47 7.6L150.4 418.3c-15.4-7.8-24.1-23.9-22.1-41.1 2-17.2 14.2-30.9 31-34.9l251.3-59.8 59.8-251.3c4-16.8 17.7-29 34.9-31 1.6-0.2 3.3-0.3 4.9-0.3 15.3 0 29.2 8.4 36.2 22.4L891.6 709c7.9 15.7 4.9 34.6-7.5 47.1zM513.3 69.5l-54.9 230.7c-3.6 15-15.1 26.6-30.2 30.2l-230.8 54.9 635.5 319.6-319.6-635.4z"  horiz-adv-x="1024" />

    
    <glyph glyph-name="sjshang" unicode="&#58947;" d="M928 174.20000000000005L510.8 591.5l-416-416 833.2-1.3z m0 0"  horiz-adv-x="1024" />

    
    <glyph glyph-name="icon10" unicode="&#58907;" d="M409.709989 824.506982h204.879992v-51.195001H409.709989zM764.13358057-66H260.0421831c-62.04472207 0-112.48901455 50.44429248-112.48901454 112.48901455V658.6753251c0 62.04472207 50.44429248 112.48901455 112.48901454 112.48901454h42.0076169v-44.99560634h-42.0076169c-37.26198633 0-67.49340908-30.31930459-67.4934082-67.4934082V46.576896379999994c0-37.26198633 30.31930459-67.49340908 67.4934082-67.4934082h504.09139747c37.26198633 0 67.49340908 30.31930459 67.49340908 67.4934082V658.6753251c0 37.26198633-30.31930459 67.49340908-67.49340908 67.4934082h-42.00761602V771.16433965h42.00761602c62.04472207 0 112.48901455-50.44429248 112.48901455-112.48901455V46.576896379999994c0.08788183-62.13260391-50.44429248-112.57689638-112.48901455-112.57689638zM340.89366289 833.91211816h44.99560547v-162.05448691h-44.99560547zM640.13201826 833.91211816H685.12762461v-162.05448691h-44.99560635zM298.09510771 553.30475508h422.36109756v-44.99560547H298.09510771zM298.09510771 374.81632617h422.36109756v-44.99560547H298.09510771zM298.09510771 192.54896953000002h278.32242921v-44.99560547H298.09510771z"  horiz-adv-x="1024" />

    
    <glyph glyph-name="clgl" unicode="&#58909;" d="M933.82 529.88h-83.36a22.22 22.22 0 0 1-10.9-3L802 641.1800000000001c-12 65-57.36 96.32-113 96.32H335.9c-63.93 0-102.74-42.08-113-96.28l-37.73-114.65a22.7 22.7 0 0 1-11.55 3.31h-83.4A23.32 23.32 0 0 1 67 506.45v-20.36a23.34 23.34 0 0 1 23.22-23.42l31.59-5.45c-10-19.67-15.68-42.17-15.68-68.33L94.47 254a98.91 98.91 0 0 1 0.77-11.92 41.24 41.24 0 0 1-0.77-7.6V72.29999999999995a41.62 41.62 0 0 1 41.44-41.8h63.24a41.59 41.59 0 0 1 41.39 41.8v52.13h543.68v-52.13a41.62 41.62 0 0 1 41.44-41.8h63.25a41.61 41.61 0 0 1 41.43 41.8V234.51999999999998a41.56 41.56 0 0 1-0.77 7.6 107.84 107.84 0 0 1 0.77 11.92l-11.71 134.85c0 26.25-5.69 48.74-15.71 68.49l30.9 5.29A23.31 23.31 0 0 1 957 486.1v20.35a23.26 23.26 0 0 1-23.18 23.43z m-683.1 24l27.59 74.15 0.4 1.73c2.75 15 8.89 17.65 17.93 29.25H728.7c9.17-11.91 14.86-14.94 17.36-29.08l28-76 10.26-41.31c-2.3-30.25-38.29-54.11-68.25-54.11H308.72c-30 0-66 23.86-68.3 54.11z m19.35-352.62c-34.65 0-62.72 28.36-62.72 63.33s28.07 63.33 62.72 63.33 62.71-28.31 62.71-63.33-28.07-63.33-62.71-63.33zM620.46 248a18.74 18.74 0 0 0-18.7-18.82h-176A18.73 18.73 0 0 0 407.14 248v53a18.71 18.71 0 0 0 18.66 18.77h176A18.73 18.73 0 0 0 620.46 301z m134.28-46.73c-34.65 0-62.75 28.36-62.75 63.33s28.1 63.33 62.75 63.33 62.72-28.31 62.72-63.33-28.07-63.33-62.72-63.33z m0 0"  horiz-adv-x="1024" />

    
    <glyph glyph-name="dianzan" unicode="&#59060;" d="M736.256-33.792H291.84v40.96c0 75.776 1.024 428.032 1.024 428.032 0 37.888 11.264 74.752 31.744 107.52l123.904 191.488c21.504 32.768 49.152 67.584 113.664 67.584 49.152 0 76.8-23.552 91.136-43.008 43.008-60.416 23.552-164.864-2.048-244.736h201.728c30.72 0 59.392-13.312 78.848-36.864 17.408-21.504 24.576-49.152 19.456-75.776L892.928 117.76c-20.48-91.136-82.944-151.552-156.672-151.552z m-362.496 81.92h362.496c33.792 0 65.536 35.84 76.8 87.04L870.4 418.816c0 1.024 1.024 4.096-2.048 7.168-3.072 4.096-9.216 6.144-15.36 6.144H643.072c-27.648 0-53.248 14.336-67.584 37.888-12.288 20.48-13.312 46.08-3.072 67.584 25.6 79.872 31.744 149.504 14.336 173.056-2.048 3.072-7.168 9.216-24.576 9.216-21.504 0-28.672-4.096-45.056-30.72L393.216 497.664c-12.288-19.456-18.432-40.96-18.432-62.464 0 0-1.024-269.312-1.024-387.072zM373.76-33.792H198.656C129.024-33.792 71.68 22.528 71.68 93.184v5.12l45.056 340.992c2.048 40.96 35.84 73.728 77.824 73.728h179.2v-546.816zM153.6 91.136c1.024-23.552 21.504-43.008 45.056-43.008h93.184V432.128h-93.184v-1.024L153.6 91.136z"  horiz-adv-x="1024" />

    
    <glyph glyph-name="sq1" unicode="&#58972;" d="M512 384m-450 0a450 450 0 1 1 900 0 450 450 0 1 1-900 0ZM320.23863613 311.13068152000005c0-7.67045462 3.8352269-11.50568152 7.67045463-15.34090842v-15.34090923c-3.8352269-3.8352269-7.67045462-11.50568152-7.67045463-15.34090925 0-11.50568152 7.67045462-19.17613613 19.17613697-19.17613614 3.8352269 0 7.67045462 3.8352269 11.50568152 7.67045462 3.8352269 3.8352269 3.8352269 7.67045462 3.8352269 15.34090842s-3.8352269 11.50568152-7.67045462 15.34090923v15.34090925c3.8352269 3.8352269 7.67045462 7.67045462 7.67045462 15.34090924 0 11.50568152-7.67045462 19.17613613-19.17613614 19.17613614-7.67045462-3.8352269-15.34090925-11.50568152-15.34090925-23.01136386z m333.66477311-122.72727228H627.05681848v184.09090924c23.01136387 11.50568152 38.3522731 38.3522731 38.35227228 65.19886304 0 11.50568152-3.8352269 26.84659075-11.50568151 38.3522731L581.03409076 614.11363613H289.55681848v-3.83522689s-3.8352269-7.67045462-11.50568235-19.17613614L216.6875 472.2102269c-7.67045462-11.50568152-11.50568152-23.01136387-11.50568152-38.35227228 0-30.68181848 19.17613613-57.52840924 46.0227269-69.03409075v-180.25568235h-23.01136386c-7.67045462 0-15.34090925-7.67045462-15.34090842-15.34090842s7.67045462-15.34090925 15.34090842-15.34090923h421.875c7.67045462 0 15.34090925 7.67045462 15.34090924 15.34090923 3.8352269 11.50568152-3.8352269 19.17613613-11.50568151 19.17613614z m-287.64204537 1e-8H281.88636387v176.42045462c19.17613613 3.8352269 34.51704538 11.50568152 46.02272689 26.84659075 11.50568152-11.50568152 23.01136387-23.01136387 38.35227311-23.01136386v-180.25568151z m226.27840923 0H393.10795462v176.42045462c15.34090925 3.8352269 30.68181848 11.50568152 42.1875 26.84659075 11.50568152-15.34090925 30.68181848-26.84659075 53.69318151-26.84659075 19.17613613 0 38.3522731 7.67045462 53.69318235 26.84659075 11.50568152-15.34090925 30.68181848-26.84659075 53.69318152-26.84659075v-176.42045462z m3.8352269 210.93749999c-19.17613613 0-38.3522731 15.34090925-38.3522731 38.35227228 0 7.67045462-3.8352269 19.17613613-15.34090842 19.17613696-7.67045462 0-15.34090925-7.67045462-15.34090924-15.34090923 0-19.17613613-15.34090925-38.3522731-38.35227311-38.35227312-19.17613613 0-38.3522731 15.34090925-38.35227226 38.35227312 0 7.67045462-7.67045462 15.34090925-15.34090925 15.34090923s-15.34090925-7.67045462-15.34090924-15.34090923c0-19.17613613-15.34090925-38.3522731-38.35227228-38.35227312-19.17613613 0-38.3522731 15.34090925-38.3522731 38.35227312 0 7.67045462-7.67045462 15.34090925-15.34090925 15.34090923-7.67045462-3.8352269-11.50568152-7.67045462-11.50568151-7.67045461-3.8352269-7.67045462-3.8352269-11.50568152-3.83522772-11.50568235 0-19.17613613-15.34090925-38.3522731-38.35227228-38.35227228h-3.83522772c-19.17613613 3.8352269-34.51704538 19.17613613-34.51704539 38.35227228 0 3.8352269 7.67045462 19.17613613 11.50568235 23.01136386l61.36363614 118.89204538h253.125L623.22159076 460.70454538c3.8352269-3.8352269 7.67045462-19.17613613 7.67045462-26.84659076 0-19.17613613-15.34090925-34.51704538-34.51704538-34.51704538z m207.1022731-168.74999999H780.46590924v149.57386385c19.17613613 11.50568152 34.51704538 30.68181848 34.51704538 53.69318152 0 11.50568152-3.8352269 23.01136387-7.67045462 30.68181848l-61.36363613 118.89204538h-130.39772774v-3.83522773c-3.8352269-3.8352269-7.67045462-7.67045462-7.67045461-11.50568151 0-3.8352269 3.8352269-11.50568152 7.67045461-11.50568234h115.05681849L780.46590924 456.86931848c3.8352269-7.67045462 7.67045462-15.34090925 7.67045463-23.01136386 0-15.34090925-15.34090925-30.68181848-30.68181849-30.68181849s-30.68181848 15.34090925-30.68181848 30.68181849c0 7.67045462-3.8352269 15.34090925-15.34090842 15.34090925-7.67045462 0-15.34090925-7.67045462-15.34090923-15.34090925 0-15.34090925-11.50568152-30.68181848-30.68181849-30.68181849-7.67045462 0-11.50568152-3.8352269-15.34090924-7.67045461-3.8352269-3.8352269-3.8352269-11.50568152 0-15.34090842 3.8352269-3.8352269 7.67045462-7.67045462 11.50568235-7.67045462 15.34090925 0 34.51704538 7.67045462 46.02272688 23.01136304 11.50568152-11.50568152 26.84659075-19.17613613 42.1875-23.01136304V230.59090924999998h-115.05681765c-3.8352269-3.8352269-7.67045462-7.67045462-7.67045462-15.34090925 0-3.8352269 3.8352269-11.50568152 7.67045462-15.34090925h164.91477228c7.67045462 0 15.34090925 7.67045462 15.34090924 15.34090925s-3.8352269 15.34090925-11.50568152 15.34090924z"  horiz-adv-x="1024" />

    
    <glyph glyph-name="vip" unicode="&#58962;" d="M747.2 0H276.8c-46.4 0-84.8 32-94.4 76.8L64 665.6c-3.2 12.8 3.2 27.2 16 33.6 11.2 6.4 27.2 4.8 36.8-3.2l198.4-169.6 171.2 228.8c12.8 16 38.4 16 51.2 0l171.2-228.8L907.2 696c9.6 9.6 25.6 9.6 36.8 3.2 11.2-6.4 17.6-20.8 16-33.6L841.6 76.79999999999995c-9.6-44.8-48-76.8-94.4-76.8zM145.6 587.2l99.2-497.6c3.2-14.4 16-25.6 32-25.6h470.4c16 0 28.8 11.2 32 25.6l99.2 497.6L724.8 456c-6.4-6.4-16-8-24-8-8 1.6-17.6 4.8-22.4 12.8L512 683.2 345.6 460.8c-4.8-6.4-12.8-11.2-22.4-12.8-8-1.6-17.6 1.6-24 8L145.6 587.2zM512 160c-11.2 0-22.4 6.4-27.2 16l-96 160c-9.6 14.4-4.8 35.2 11.2 43.2 14.4 9.6 35.2 4.8 43.2-11.2L512 254.39999999999998 580.8 368c9.6 14.4 28.8 20.8 43.2 11.2 14.4-9.6 20.8-28.8 11.2-43.2l-96-160c-4.8-9.6-16-16-27.2-16z"  horiz-adv-x="1024" />

    
    <glyph glyph-name="sq2" unicode="&#58908;" d="M62 384c0-248.52857168 201.47142832-450 450-450s450 201.47142832 450 450S760.52857168 834 512 834 62 632.52857168 62 384zM625.82857156 126.41142844000001c-6.41142844-12.82285687-25.61142844-12.82285687-32.02285687 0l-32.02285782 32.05714312-32.02285687-32.05714312c-6.41142844-12.82285687-25.61142844-12.82285687-32.02285688 0l-32.02285781 32.05714312-32.02285687-32.05714312c-6.41142844-12.82285687-25.61142844-12.82285687-32.02285688 0l-32.02285687 32.05714312-31.98857157-32.05714312c-12.82285687-12.82285687-38.43428531-6.41142844-38.43428625 19.2V600.8571431299999c0 12.82285687 12.78857156 25.64571469 25.61142844 25.64571375h384.24c12.78857156 0 25.61142844-12.82285687 25.61142938-25.64571375v-455.17714313c0-19.23428531-25.61142844-32.05714312-38.4-19.23428531l-32.05714313 32.05714219-38.4-32.05714219zM413.01714312 631.44c0 12.34285687 12.78857156 24.72 25.54285688 24.72h146.88c12.75428531 0 25.54285687-12.34285687 25.54285687-24.72v-24.75428531c0-12.34285687-12.78857156-24.75428531-25.54285687-24.75428625h-146.88c-12.75428531 0-25.54285687 12.37714312-25.54285687 24.75428625v24.75428531zM413.01714312 350.50285686999996v-38.05714218h77.82857157v-57.12h32.4v57.12h77.82857062v38.05714218h-77.82857062v25.37142844h77.82857062v38.05714313h-58.35428531l58.35428531 57.12-25.95428531 31.71428625-71.31428531-69.80571469-64.83428625 69.80571469-25.95428531-31.71428625 58.38857156-57.12h-58.38857156v-38.05714313h77.82857156v-25.37142843z"  horiz-adv-x="1024" />

    
    <glyph glyph-name="youjiantou" unicode="&#58946;" d="M933.875 355.875H90.125C73.25 355.875 62 367.125 62 384s11.25 28.125 28.125 28.125h843.75c16.875 0 28.125-11.25 28.125-28.125s-11.25-28.125-28.125-28.125zM956.375 361.5L680.75 85.875c-11.25-11.25-28.125-11.25-39.375 0-11.25 11.25-11.25 28.125 0 39.375l275.625 275.625c11.25 11.25 28.125 11.25 39.375 0 5.625-5.625 5.625-28.125 0-39.375zM911.375 361.5l-275.625 275.625c-11.25 11.25-11.25 28.125 0 39.375 11.25 11.25 28.125 11.25 39.375 0l275.625-275.625c11.25-11.25 11.25-28.125 0-39.375-5.625-5.625-28.125-5.625-39.375 0z"  horiz-adv-x="1024" />

    
    <glyph glyph-name="qiandao" unicode="&#58890;" d="M888.26666667 733.216H749.39733333v71.31733333c0 12.21333333-9.92 22.13333333-22.13333333 22.13333334s-22.13333333-9.92-22.13333333-22.13333334v-71.31733333H318.86933333v71.31733333c0 12.21333333-9.92 22.13333333-22.13333333 22.13333334s-22.13333333-9.92-22.13333333-22.13333334v-71.31733333H135.73333333c-36.608 0-66.4-29.792-66.4-66.4v-659.08266667c0-36.608 29.792-66.4 66.4-66.4h752.53333334c36.608 0 66.4 29.792 66.4 66.4V666.816c0 36.608-29.792 66.4-66.4 66.4z m22.13333333-725.48266667c0-12.21333333-9.92-22.13333333-22.13333333-22.13333333h-752.53333334c-12.21333333 0-22.13333333 9.92-22.13333333 22.13333333V666.816c0 12.21333333 9.92 22.13333333 22.13333333 22.13333333h138.86933334v-71.31733333c0-12.21333333 9.92-22.13333333 22.13333333-22.13333333s22.13333333 9.92 22.13333333 22.13333333v71.31733333h386.272v-71.31733333c0-12.21333333 9.92-22.13333333 22.13333334-22.13333333s22.13333333 9.92 22.13333333 22.13333333v71.31733333h138.86933333c12.21333333 0 22.13333333-9.92 22.13333334-22.13333333v-659.08266667zM450.96533333 175.39200000000005c-5.86666667 0-11.49866667 2.32533333-15.648 6.48533333L315.264 301.93066667000005c-8.64 8.64-8.64 22.656 0 31.296 8.65066667 8.65066667 22.656 8.64 31.30666667 0l104.39466666-104.39466667 226.464 226.464c8.64 8.64 22.656 8.64 31.296 0 8.65066667-8.64 8.65066667-22.656 0-31.30666667L466.624 181.87733333000006c-4.16-4.14933333-9.78133333-6.48533333-15.65866667-6.48533333z"  horiz-adv-x="1024" />

    
    <glyph glyph-name="icon7" unicode="&#58898;" d="M247.465 47.561000000000035V429.599c74.591 11.853 131.849 76.432 131.849 154.307 0 86.259-70.175 156.434-156.434 156.434S66.446 670.165 66.446 583.906c0-79.43 59.551-145.072 136.323-154.992v-381.353c0-12.352 10.006-22.348 22.348-22.348s22.348 9.996 22.348 22.348zM222.88 472.168c-61.609 0-111.739 50.13-111.739 111.739s50.13 111.739 111.739 111.739 111.739-50.13 111.739-111.739-50.13-111.739-111.739-111.739zM653.314 85.36000000000001v21.105c124.819-7.045 230.192-10.56 307.041-12.324v44.704c-113.188 2.594-288.89 9.035-496.647 25.016-18.583 1.419-25.981 11.414-26.582 12.702l-4.864 29.319c3.935-0.802 8.013-1.464 12.382-1.799 219.219-16.869 402.792-23.158 515.71-25.508v44.727c-68.794 1.44-163.701 4.339-277.21 10.233-10.788 19.449-39.123 65.408-76.206 86.019-38.196 21.247-148.382 23.142-192.015 23.039 11.418 41.809 66.262 85.54 134.16 103.66 155.352 41.495 310.827 46.796 411.272 44.288v45.004c-92.577 2.365-229.741-1.956-373.695-34.096 28.4 47.237 72.926 109.709 115.736 131.727 67.889 34.92 211.23 39.484 257.959 40.044v44.768c-49.251-0.436-200.982-5.247-278.386-45.071-41.862-21.525-80.942-68.724-109.963-111.357h-82.462c-11.462 0-20.839-9.377-20.839-20.839v-3.017c0-11.462 9.377-20.839 20.839-20.839h54.293c-7.554-12.925-13.332-23.623-16.995-30.62-82.739-25.534-163.992-90.348-158.406-168.152l24.716-149.538c3.957-19.88 23.994-41.093 55.444-47.509v-35.683c0-33.172 26.985-60.147 60.147-60.147h84.426c33.17-0.002 60.145 26.972 60.145 60.144zM423.573 259.755c-0.074 0.367-0.323 0.636-0.413 0.994l-6.163 37.14c61.256 0.007 145.968-5.044 168.248-17.402 15.944-8.858 31.341-27.038 43.19-43.955a9433.44 9433.44 0 0 0-180.375 12.114c-17.94 1.376-23.897 9.233-24.487 11.109zM608.618 85.36000000000001c0-8.38-7.071-15.451-15.451-15.451h-84.426c-8.38 0-15.451 7.071-15.451 15.451v31.507a9492.799 9492.799 0 0 1 115.329-7.761v-23.746zM826.268 294.129v-1.487c0-11.882 9.723-21.604 21.604-21.604h112.482v44.695H847.873c-11.882 0.001-21.605-9.72-21.605-21.604zM269.675 639.534c-7.565 7.574-17.807 11.415-30.443 11.415H178.1v-134.086h25.953V567.81h35.179c13.99 0 24.896 4.71 32.415 13.999 6.248 7.679 9.421 17.289 9.421 28.553 0 11.788-3.832 21.602-11.393 29.172z m-65.622-12.363h30.092c6.587 0 11.658-1.273 15.074-3.781 3.598-2.691 5.362-7.016 5.362-13.203 0-6.973-1.738-11.732-5.31-14.548-3.391-2.69-8.713-4.05-15.832-4.05h-29.386v35.582zM334.619 25.214000000000055H111.142c-12.341 0-22.348 9.995-22.348 22.348S98.8 69.90999999999997 111.142 69.90999999999997h223.477c12.341 0 22.348-9.995 22.348-22.348s-10.007-22.348-22.348-22.348z"  horiz-adv-x="1024" />

    
    <glyph glyph-name="ling" unicode="&#59472;" d="M844.6955104 116.50612266999997H178.18993173c-36.2231296 0-65.758912 29.5357824-65.75891093 65.75891093 0 33.99401387 15.04653013 65.758912 40.68136 87.49278933 8.359184 6.6873472 20.61931947 15.60380907 36.2231296 25.63482987v1.6718368c-1.11455787 95.2946944-3.90095253 271.9521088 100.86748267 378.3923808C291.31755093 676.5714282700001 372.680272 757.3768704 512.55727893 757.3768704c111.4557824 0 193.93306133-53.49877547 221.79700694-81.92 46.81142827-47.3687072 78.01904747-114.799456 93.0655776-200.62040747 11.7028576-68.5453056 11.14557867-134.86149653 10.58829973-179.44381013 16.161088-10.0310208 27.8639456-18.94748267 35.66585067-26.1921088 23.96299307-21.73387733 37.8949664-52.94149653 37.89496533-85.2636736 0-37.33768747-30.09306133-67.4307488-66.8734688-67.43074773zM512.55727893 712.7945578700001c-119.8149664 0-189.47482987-67.4307488-190.0321088-67.98802774C230.57414933 551.1836736 232.80326507 386.22911573 233.91782293 297.62176853000005v-5.0155104c0-13.3746944-6.6873472-26.74938773-18.39020373-33.9940128-18.94748267-11.7028576-28.97850347-19.5047616-33.99401387-23.4057152-15.60380907-13.3746944-25.07755093-32.879456-25.07755093-53.49877546 0-11.7028576 9.47374187-21.1765984 21.1765984-21.1765984h666.50557867c12.26013653 0 22.29115627 10.0310208 22.29115626 22.29115626 0 20.06204053-8.359184 39.00952427-23.40571413 52.3842176-4.45823147 3.90095253-13.93197227 11.7028576-32.32217707 23.4057152-11.7028576 7.24462613-18.39020373 19.5047616-17.8329248 33.43673387v2.22911573c0.55727893 42.91047573 1.11455787 106.99755093-10.0310208 172.199184-13.3746944 76.9044896-40.12408213 136.53333333-80.80544213 177.21469334-18.39020373 19.5047616-89.16462613 69.10258453-189.47482987 69.1025856zM416.14802773 698.3053056l-1.6718368 26.19210987c0 2.78639467-0.55727893 5.0155104-0.55727893 7.24462506C413.918912 785.79809493 457.9439456 829.8231296 512 829.8231296s98.081088-44.0250336 98.081088-98.08108907c0-2.22911573 0-4.45823147-0.55727893-6.68734613l-1.6718368-26.19210987-25.63482987 5.57278934c-46.25414933 11.14557867-95.2946944 11.14557867-140.99156373 0l-25.07755094-6.13006827zM512 785.240816c-21.73387733 0-40.68136107-12.81741547-49.040544-31.76489813 32.32217707 4.45823147 65.20163307 4.45823147 98.081088 0A53.44304747 53.44304747 0 0 1 512 785.240816zM512-61.823129600000016c-89.16462613 0-161.61088427 72.44625813-161.61088427 161.61088427 0 15.60380907 2.22911573 30.65034027 6.6873472 45.13959253l4.45823147 16.161088h300.9306112l4.45823147-16.161088c4.45823147-14.4892512 6.6873472-30.09306133 6.6873472-45.13959253 0-89.16462613-72.44625813-161.61088427-161.61088427-161.61088427z m-115.91401387 178.32925227c-0.55727893-5.57278933-1.11455787-11.14557867-1.11455786-16.718368 0-64.64435413 52.3842176-117.02857173 117.02857173-117.02857067s117.02857173 52.3842176 117.02857173 117.02857067c0 5.57278933-0.55727893 11.14557867-1.11455786 16.718368H396.08598613z"  horiz-adv-x="1024" />

    
    <glyph glyph-name="erweima" unicode="&#59069;" d="M437.00000029 834H99.50000029A37.50000029 37.50000029 0 0 1 62 796.49999971V458.99999971a37.50000029 37.50000029 0 0 1 37.50000029-37.49999942H437.00000029a37.50000029 37.50000029 0 0 1 37.49999942 37.49999942V796.49999971A37.50000029 37.50000029 0 0 1 437.00000029 834z m-37.50000029-337.5H136.99999971V759.00000029h262.50000029v-262.50000029z m37.50000029-150.00000029H99.50000029A37.50000029 37.50000029 0 0 1 62 309.00000029v-337.5A37.50000029 37.50000029 0 0 1 99.50000029-66H437.00000029a37.50000029 37.50000029 0 0 1 37.49999942 37.50000029V309.00000029a37.50000029 37.50000029 0 0 1-37.49999942 37.49999942zM399.5 8.999999709999997H136.99999971V271.5h262.50000029V8.999999709999997z m524.99999971 825.00000029H586.99999971a37.50000029 37.50000029 0 0 1-37.49999942-37.50000029V458.99999971a37.50000029 37.50000029 0 0 1 37.49999942-37.49999942h337.5A37.50000029 37.50000029 0 0 1 962 458.99999971V796.49999971A37.50000029 37.50000029 0 0 1 924.49999971 834zM887.00000029 496.5H624.5V759.00000029H887.00000029v-262.50000029zM212.00000029 683.99999971h112.5v-112.5H212.00000029V683.99999971z m0-487.49999942h112.5V84.00000029H212.00000029v112.5z m637.49999971 149.99999942H962V233.99999971h-112.5v112.5z m0-299.99999971h-74.99999971V-66H962v187.49999971h-112.5v-74.99999971z m-299.99999971 0H662.00000029V-66h-112.5v112.5z m149.99999942 637.49999971H811.99999971v-112.5h-112.5V683.99999971z m-149.99999942-337.5H662.00000029V233.99999971h-112.5v112.5zM662.00000029 233.99999971h112.5v-187.49999971H662.00000029V233.99999971z"  horiz-adv-x="1024" />

    
    <glyph glyph-name="icon6" unicode="&#59067;" d="M953.5-25.799999999999955L767.4 160.29999999999995C838 239 878.2 345.20000000000005 869.1 461.2 854.1 653 701 810.3 509.6 829.8 256 855.7 44.1 646.4 65.5 393.7c15.8-187 163.3-340.5 349.4-364.7 69.3-9 135.4 0.3 194.8 23 15 5.7 19.1 25.2 7.7 36.6-6.2 6.2-15.5 8-23.7 4.9-47.9-18.1-100.8-26.2-156-21.8-175.2 14-317.1 158.4-328.2 333.8C95.3 629.8 287.6 813.3 514.7 784.1 673.9 763.7 802 635.4 822.5 476.2c15.2-117.8-27.1-225.8-102.4-300.8-8.7-8.7-8.2-23 0.5-31.7l201.2-201.2c8.7-8.7 23-8.7 31.7 0s8.7 23 0 31.7zM589.53125 572.85416667c-8.15625 8.15625-21.5625 8.15625-29.71875 0l-89.8125-89.8125-89.8125 89.8125c-8.15625 8.15625-21.5625 8.15625-29.71875 0s-8.15625-21.5625 0-29.71875l60.84375-60.84375h-35.8125c-11.53125 0-21-9.46875-21-21 0-11.53125 9.46875-21 21-21h73.5v-63h-73.5c-11.53125 0-21-9.46875-21-21 0-11.53125 9.46875-21 21-21h73.5v-84c0-11.53125 9.46875-21 21-21 11.53125 0 21 9.46875 21 21v84H564.5c11.53125 0 21 9.46875 21 21 0 11.53125-9.46875 21-21 21h-73.5v63H564.5c11.53125 0 21 9.46875 21 21 0 11.53125-9.46875 21-21 21h-35.8125l60.84375 60.84375c8.15625 8.15625 8.15625 21.5625 0 29.71875z"  horiz-adv-x="1024" />

    
    <glyph glyph-name="history" unicode="&#58893;" d="M713 357.29999999999995H514.9c-14.7 0-26.7 12-26.7 26.7s12 26.7 26.7 26.7H713c14.7 0 26.7-12 26.7-26.7s-11.9-26.7-26.7-26.7zM514.9 357.29999999999995c-14.7 0-26.7 12-26.7 26.7V645.3c0 14.7 12 26.7 26.7 26.7s26.7-12 26.7-26.7V384c0-14.8-11.9-26.7-26.7-26.7zM514.9-58.299999999999955C271-58.299999999999955 72.6 140.10000000000002 72.6 384S271 826.3 514.9 826.3 957.3 627.9 957.3 384 758.8-58.299999999999955 514.9-58.299999999999955z m0 831.2C300.5 772.9 126 598.4 126 384c0-214.4 174.5-388.9 388.9-388.9 214.4 0 388.9 174.5 388.9 388.9 0 214.4-174.4 388.9-388.9 388.9z"  horiz-adv-x="1024" />

    
    <glyph glyph-name="sq4" unicode="&#58919;" d="M508.4 381.29999999999995m-434.7 0a434.7 434.7 0 1 1 869.4 0 434.7 434.7 0 1 1-869.4 0ZM451.25 305.70000000000005c-41.85-45.45-112.05-48.15-157.5-6.3-45.45 41.85-48.15 112.05-6.3 157.5S399.5 505.05 444.5 463.2l0.45-0.45 97.2 63.45c-17.55 42.75 3.15 91.35 45.9 108.9 42.75 17.55 91.35-3.15 108.9-45.9s-3.15-91.35-45.9-108.9c-29.7-12.15-63.9-6.3-87.75 15.3L467.9 433.05c8.1-15.3 12.6-33.3 12.6-51.75 0-15.3-3.15-30.15-9-44.55l139.95-78.75c29.7 35.55 82.35 40.5 117.9 10.8 35.55-29.7 40.5-82.35 10.8-117.9-29.7-35.55-82.35-40.5-117.9-10.8-24.75 20.7-35.55 53.55-27.45 84.6l-143.55 81z"  horiz-adv-x="1024" />

    
    <glyph glyph-name="laba" unicode="&#58910;" d="M646.4 735.99999966c-25.6 19.2-55.466667 23.466667-85.333333 12.8l-251.733334-125.866666c-19.2-6.4-34.133333-19.2-44.8-34.133334-12.8 4.266667-27.733333 8.533333-49.066666 8.533334H187.733333c-49.066667 0-87.466667-40.533333-87.466666-91.733334v-217.6c0-51.2 38.4-91.733333 87.466666-91.733333h27.733334c21.333333 0 36.266667 2.133333 49.066666 8.533333 10.666667-14.933333 25.6-25.6 42.666667-32L554.666667 57.59999965999998h2.133333c10.666667-4.266667 23.466667-6.4 34.133333-6.4 19.2 0 38.4 6.4 53.333334 17.066667 29.866667 21.333333 46.933333 55.466667 46.933333 96V642.1333336600001c2.133333 38.4-14.933333 74.666667-44.8 93.866666z m-405.333333-467.2v-4.266666c-2.133333 0-8.533333-2.133333-23.466667-2.133334H187.733333c-12.8 0-23.466667 12.8-23.466666 27.733334V507.73333366c0 14.933333 10.666667 27.733333 23.466666 27.733333h27.733334c17.066667 0 23.466667-2.133333 23.466666-2.133333V279.46666666c2.133333-4.266667 2.133333-6.4 2.133334-10.666667z m388.266666-106.666666c0-17.066667-8.533333-34.133333-19.2-42.666667-6.4-4.266667-14.933333-8.533333-27.733333-4.266667l-247.466667 117.333334h-2.133333c-17.066667 6.4-27.733333 25.6-27.733333 46.933333V518.39999966c0 21.333333 12.8 40.533333 27.733333 46.933334l251.733333 125.866666c10.666667 2.133333 19.2-2.133333 25.6-4.266666 12.8-8.533333 19.2-23.466667 19.2-42.666667v-482.133333zM776.533333 563.19999966c6.4-4.266667 12.8-6.4 19.2-6.4 10.666667 0 19.2 4.266667 25.6 12.8l81.066667 110.933334c10.666667 14.933333 6.4 34.133333-6.4 44.8-14.933333 10.666667-34.133333 6.4-44.8-6.4L768 607.99999966c-8.533333-14.933333-6.4-34.133333 8.533333-44.8zM821.333333 204.79999966000003c-10.666667 14.933333-29.866667 17.066667-44.8 6.4-14.933333-10.666667-17.066667-29.866667-6.4-44.8l81.066667-110.933333c6.4-8.533333 14.933333-12.8 25.6-12.8 6.4 0 12.8 2.133333 19.2 6.4 14.933333 10.666667 17.066667 29.866667 6.4 44.8l-81.066667 110.933333zM891.733333 424.53333366H789.333333c-17.066667 0-32-14.933333-32-32s14.933333-32 32-32h102.4c17.066667 0 32 14.933333 32 32s-12.8 32-32 32z"  horiz-adv-x="1024" />

    
    <glyph glyph-name="sq3" unicode="&#58994;" d="M512 834C263.4875 834 62 632.5125 62 384s201.4875-450 450-450 450 201.4875 450 450S760.5125 834 512 834zM484.505 136.5h-137.4975c-30.375 0-55.0125 22.185-55.0125 49.5675v123.885c0 27.36 24.615 49.5675 55.0125 49.5675h137.475V136.5z m247.5 49.5675c0-27.3825-24.615-49.5675-55.0125-49.5675h-137.475v223.02h137.475c30.3975 0 55.0125-22.2075 55.0125-49.5675v-123.885zM759.5 421.4625c0-6.84-6.165-12.3975-13.7475-12.3975H278.2475c-7.5825 0-13.7475 5.5575-13.7475 12.375v49.5675c0 6.84 6.165 12.375 13.7475 12.375h83.1375c-27.675 18-43.965 41.49-47.1825 65.565-4.86 36.1125 16.92 66.9825 54.5175 78.3 6.5025 1.98 13.5675 3.195 20.6325 3.195 65.2275 0 101.7675-86.2875 116.64-123.9975h19.575C539.135 543.615 577.2275 631.5 642.455 631.5c7.0425 0 13.86-0.9 20.6325-2.925 37.62-11.25 59.5125-42.1875 54.54-78.3225-3.375-24.345-19.5075-48.87-48.96-66.8475h77.085c7.5825 0 13.7475-5.5575 13.7475-12.375v-49.5675z"  horiz-adv-x="1024" />

    
    <glyph glyph-name="icon11" unicode="&#58948;" d="M887 78.29999999999995c-10.8-43.4-49-75.1-94.2-75.1-42 0-77.7 26.9-91.4 65.7h-377c-13.6-38.8-49.4-65.7-91.4-65.7-45.2 0-83.4 31.7-94.2 75.1-47.1 19.7-77 68.4-73.1 122.4L75 326.4c3.6 50.2 35.2 94.6 80.5 115.2l40.6 196c14.9 71.7 85.1 130 156.6 130H673c71.5 0 141.7-58.3 156.5-130l40.6-196c45.3-20.7 76.9-65.1 80.5-115.2l9.3-125.8C964 146.60000000000002 934 98 887 78.29999999999995z m-0.1 245.4c-2.4 31.8-25.8 60.7-57 70.3-10.3 3.1-17.7 12.2-18.9 23.1-0.2 1.5-0.3 3-0.4 4.6-0.1 0.8-0.1 1.6-0.2 2.5L769.8 620c-9.4 45.2-55.5 83.4-100.5 83.4H356.7c-45.1 0-91.1-38.2-100.5-83.4l-40.7-196c-0.2-0.8-0.2-1.5-0.2-2.4-0.1-1.5-0.2-3.1-0.4-4.7-1.2-10.8-8.6-19.9-18.9-23-31.3-9.5-54.7-38.4-57-70.3L130 201c-2.4-32.6 17.3-60.5 47.9-67.8 11.6-2.8 20-13.1 20.6-25.4 1.1-22.8 19.3-40.8 41.4-40.8 21.7 0 39.3 16.8 41.3 39.2 1.2 14.1 12.7 24.9 26.6 24.9h410.3c13.8 0 25.4-10.8 26.6-24.9 1.9-22.3 19.7-39.2 41.3-39.2 22.1 0 40.4 17.9 41.4 40.8 0.7 12.3 9 22.6 20.6 25.4 30.6 7.2 50.3 35.2 47.8 67.8l-8.9 122.7z m-86.6-112.8c-11.5-11.7-27.6-18.6-43.7-18.6s-32.2 6.8-43.7 18.6c-11.4 11.7-18.1 28.3-18.1 44.8s6.6 33.1 18.1 44.8c11.4 11.7 27.5 18.6 43.7 18.6s32.2-6.8 43.7-18.6c11.4-11.7 18.1-28.3 18.1-44.8 0.1-16.6-6.6-33.1-18.1-44.8z m-52.5 214.7c-5.4-6.6-14-10.5-24.3-10.5H302.2c-10.1 0-18.9 3.9-24.5 10.9-5.5 6.4-7.8 15.9-6.3 26 0.1 0.7 0.3 1.4 0.4 2l33.1 147.5c4.2 23.3 26.6 42.7 49.8 42.7h316.7c23.1 0 45.6-19.5 49.7-42.7L754.2 454c0.2-0.7 0.3-1.4 0.4-2 1.4-10.1-0.9-19.5-6.8-26.4z m-85.7 156.8H363.8l-26.3-105.2h350.7l-25.1 105.2h-1zM313 210.89999999999998c-11.4-11.7-27.5-18.6-43.7-18.6-16.2 0-32.2 6.8-43.7 18.6-11.5 11.7-18.1 28.3-18.1 44.8s6.6 33.1 18.1 44.8c11.4 11.7 27.5 18.6 43.7 18.6 16.2 0 32.2-6.8 43.7-18.6 11.5-11.7 18.1-28.3 18.1-44.8 0-16.6-6.6-33.1-18.1-44.8z"  horiz-adv-x="1024" />

    
    <glyph glyph-name="icon3" unicode="&#59207;" d="M726.04907408 627.3399999999999c-9.01259259-2.25314815-211.79592592-83.36648148-295.16240741-164.47981481-81.11333333-81.11333333-159.97351852-286.14981481-164.47981482-295.16240742-2.25314815-9.01259259-2.25314815-18.02518519 4.5062963-24.78462962 4.5062963-4.5062963 9.01259259-6.75944444 15.77203704-6.75944445 2.25314815 0 4.5062963 0 9.01259258 2.25314815 9.01259259 2.25314815 211.79592592 83.36648148 295.16240742 164.47981482 81.11333333 81.11333333 159.97351852 286.14981481 164.47981481 295.16240741 2.25314815 9.01259259 2.25314815 18.02518519-4.5062963 24.78462962-6.75944444 6.75944444-15.77203703 9.01259259-24.78462962 4.5062963z m-166.73296297-290.65611111c-51.82240741-51.82240741-164.47981481-105.89796297-229.82111111-132.93574074 29.29092592 65.3412963 81.11333333 177.9987037 132.93574075 229.8211111 51.82240741 51.82240741 164.47981481 105.89796297 229.8211111 132.93574075-27.03777777-65.3412963-81.11333333-177.9987037-132.93574074-229.82111111zM512 384m-45.06296297 0a45.06296297 45.06296297 0 1 1 90.12592594 0 45.06296297 45.06296297 0 1 1-90.12592594 0ZM512 834.62962964C264.1537037 834.62962964 61.37037036 631.8462963 61.37037036 384s202.78333333-450.62962964 450.62962964-450.62962964c94.63222223 0 184.75814815 29.29092592 261.36518519 83.36648149 9.01259259 6.75944444 13.51888889 20.27833333 4.50629629 31.54407407-6.75944444 9.01259259-20.27833333 13.51888889-31.54407407 4.50629631-67.59444444-47.31611111-148.70777777-74.35388889-234.32740741-74.3538889-223.06166667 0-405.56666667 182.505-405.56666667 405.56666667S288.93833333 789.56666667 512 789.56666667s405.56666667-182.505 405.56666667-405.56666667c0-85.61962964-27.03777777-166.73296297-76.60703703-236.58055556-6.75944444-9.01259259-4.5062963-24.78462964 4.50629628-31.54407408 9.01259259-6.75944444 24.78462964-4.5062963 31.54407408 4.50629631C933.3387037 199.24185185 962.62962964 289.36777777 962.62962964 384 962.62962964 631.8462963 759.8462963 834.62962964 512 834.62962964z"  horiz-adv-x="1024" />

    


  </font>
</defs>
</svg>
